<?xml version="1.0" standalone="no"?>
<!DOCTYPE svg PUBLIC "-//W3C//DTD SVG 20010904//EN"
 "http://www.w3.org/TR/2001/REC-SVG-20010904/DTD/svg10.dtd">
<svg version="1.0" xmlns="http://www.w3.org/2000/svg"
 width="512.000000pt" height="512.000000pt" viewBox="0 0 512.000000 512.000000"
 preserveAspectRatio="xMidYMid meet">
<metadata>
Created by potrace 1.14, written by Peter Selinger 2001-2017
</metadata>
<g transform="translate(0.000000,512.000000) scale(0.100000,-0.100000)"
fill="#000000" stroke="none">
<path d="M2043 4832 c-100 -35 -197 -137 -224 -236 -7 -24 -12 -129 -13 -254
l-1 -213 -40 -18 c-98 -45 -149 -146 -124 -246 14 -53 74 -127 121 -146 18 -7
36 -17 39 -21 3 -5 5 -84 4 -176 l-1 -167 -119 -1 c-186 -1 -275 30 -367 130
-27 28 -48 54 -48 57 0 18 -84 111 -126 140 -94 64 -128 69 -532 70 -426 1
-430 0 -522 -91 -71 -71 -94 -132 -87 -229 10 -129 82 -221 209 -264 30 -10
83 -16 147 -16 56 0 118 -1 139 -1 l37 -1 -38 -14 c-58 -20 -128 -85 -161
-148 -24 -47 -29 -68 -28 -129 0 -93 25 -153 90 -216 76 -74 122 -86 330 -86
94 0 172 -1 172 -2 0 -1 -20 -12 -44 -24 -61 -29 -111 -79 -143 -142 -22 -43
-27 -66 -27 -128 -1 -117 53 -209 155 -265 l54 -30 330 -2 c360 -3 399 1 511
54 33 15 61 28 64 30 3 2 5 -77 5 -174 l-2 -178 160 -315 c88 -173 196 -385
241 -470 l81 -155 5 -120 c8 -184 11 -187 333 -334 76 -35 93 -37 142 -17 59
25 65 51 65 267 l0 192 154 301 c85 165 193 377 241 470 l86 170 1 181 1 182
71 -33 c109 -50 163 -55 516 -52 302 3 317 4 362 25 148 72 213 248 145 397
-30 65 -78 112 -144 143 -29 13 -53 26 -53 27 0 2 69 2 153 2 223 -2 286 14
362 89 92 93 113 222 54 342 -39 80 -81 116 -187 159 -15 6 29 9 135 10 148 0
161 2 215 26 67 31 117 80 149 145 18 37 23 65 24 128 0 70 -4 86 -29 133 -33
60 -76 101 -139 134 -41 23 -50 23 -421 26 -357 3 -383 2 -445 -17 -83 -26
-164 -88 -216 -166 -109 -164 -206 -211 -437 -210 l-113 1 -1 175 -1 176 36
13 c101 35 163 171 123 272 -18 45 -81 107 -122 119 l-37 11 -1 214 c-1 124
-6 232 -13 257 -29 110 -117 201 -232 240 -42 14 -110 16 -510 16 -419 1 -467
-1 -514 -17z"/>
</g>
</svg>
